<svg width="163" height="17" fill="none" xmlns="http://www.w3.org/2000/svg"><path d="M.77 1.185C2.366.945 3.98.832 5.593.845c2.924 0 4.735.49 6.24 1.562 1.673 1.191 2.75 3.148 2.75 6.03 0 3.198-1.17 5.276-2.652 6.47-1.668 1.337-4.153 1.933-7.121 1.933a26.375 26.375 0 01-4.042-.257V1.185zm4.058 12.343c.286.04.575.055.863.045 2.631.034 4.58-1.46 4.58-5.002 0-3.067-1.755-4.51-4.206-4.51a5.568 5.568 0 00-1.237.103v9.364zm24.599-3.191h-5.454v2.892h6.103v3.436H19.908V.967h9.847v3.436h-5.782v2.534h5.454v3.4zm9.878 6.328L34.483.967h4.463l1.61 6.18a63.595 63.595 0 011.262 5.489h.043a80.331 80.331 0 011.246-5.42l1.65-6.243h4.327l-4.97 15.698-4.809-.006zm24.108-6.328H57.95v2.892h6.098v3.436H53.886V.967h9.846v3.436H57.95v2.534h5.463v3.4zm6.053-9.37h4.065V13.14h5.848v3.524h-9.913V.967zM97.92 8.658c0 5.048-2.924 8.264-7.603 8.264-4.68 0-7.311-3.651-7.311-8.013 0-4.57 2.893-8.196 7.542-8.196 4.892 0 7.372 3.744 7.372 7.945zm-10.603.176c0 2.952 1.243 4.758 3.184 4.758 1.942 0 3.12-1.97 3.12-4.798 0-2.704-1.17-4.751-3.143-4.751-1.915 0-3.158 1.893-3.158 4.79h-.003zm15.928-7.649a30.288 30.288 0 015.003-.34c2.185 0 3.75.41 4.814 1.253a4.659 4.659 0 011.296 1.678c.3.656.448 1.375.432 2.1 0 1.59-.514 2.982-1.476 3.871-1.226 1.137-3.007 1.643-5.054 1.643-.395 0-.742-.034-.991-.052v5.327h-4.024V1.185zm4.033 6.926c.307.05.619.07.93.06 1.579 0 2.57-.846 2.57-2.195 0-1.171-.748-1.963-2.295-1.963a5.525 5.525 0 00-1.205.109V8.11zm22.192 2.226h-5.454v2.892h6.094v3.436h-10.159V.967h9.843v3.436h-5.778v2.534h5.454v3.4zm6.062-9.152a31.97 31.97 0 014.904-.34c2.34 0 3.989.333 5.132 1.21.974.769 1.497 1.888 1.497 3.424 0 1.957-1.418 3.349-2.6 3.796v.082c1.01.448 1.553 1.449 1.942 2.813.457 1.594.956 3.877 1.249 4.482h-4.153c-.23-.453-.625-1.681-1.064-3.63-.413-1.88-.968-2.27-2.222-2.27h-.662v5.885h-4.023V1.185zm4.023 6.566h1.059c1.532 0 2.416-.774 2.416-1.95 0-1.177-.749-1.846-2.1-1.858-.46-.02-.921.012-1.375.094V7.75zm13.292 4.733a9.075 9.075 0 003.936.971c1.389 0 2.076-.499 2.076-1.291 0-.793-.681-1.192-2.397-1.8-2.557-.937-4.261-2.398-4.261-4.733 0-2.777 2.263-4.906 6.096-4.906a9.658 9.658 0 014.095.801l-.851 3.36a7.79 7.79 0 00-3.299-.743c-1.237 0-1.918.468-1.918 1.158 0 .795.804 1.116 2.719 1.857 2.735 1.034 3.957 2.55 3.957 4.734 0 2.722-2.047 5.017-6.468 5.017-1.831 0-3.604-.496-4.463-.955l.778-3.47z" fill="#fff"/></svg>